<?xml version="1.0" encoding="UTF-8"?>
<svg width="48px" height="72px" viewBox="0 0 48 72" version="1.1" xmlns="http://www.w3.org/2000/svg" xmlns:xlink="http://www.w3.org/1999/xlink">
    <!-- Generator: Sketch 52.6 (67491) - http://www.bohemiancoding.com/sketch -->
    <title>Artboard</title>
    <desc>Created with Sketch.</desc>
    <g id="Artboard" stroke="none" stroke-width="1" fill="none" fill-rule="evenodd">
        <g id="icon-share" transform="translate(4.000000, 4.000000)">
            <path d="M15.1167969,1.99999999e-08 L0.88242189,1.99999999e-08 C0.39501954,0.00029299 -9.764e-05,0.39560549 1.9999999e-08,0.88320314 L1.9999999e-08,15.1175781 C0.00029299,15.6049805 0.39560549,16.0000977 0.88320314,16 L8.546875,16 L8.546875,9.8125 L6.46875,9.8125 L6.46875,7.390625 L8.546875,7.390625 L8.546875,5.60830079 C8.546875,3.54140627 9.8086914,2.41640627 11.6524414,2.41640627 C12.5355469,2.41640627 13.2944336,2.48222657 13.515625,2.51162112 L13.515625,4.67187502 L12.2442383,4.67187502 C11.2411133,4.67187502 11.046875,5.14853517 11.046875,5.84814454 L11.046875,7.390625 L13.4453125,7.390625 L13.1328125,9.8125 L11.046875,9.8125 L11.046875,16 L15.1167969,16 C15.6044922,16.0000977 15.9999024,15.6048828 16,15.1171875 C16,15.1170899 16,15.1169922 16,15.1167969 L16,0.88242189 C15.9998047,0.39501954 15.6043945,-9.764e-05 15.1167969,1.99999999e-08 Z" id="Path" fill="#AAAAAA"></path>
            <path d="M15.1167969,24 L0.88242189,24 C0.39501954,24.000293 -9.764e-05,24.3956055 1.9999999e-08,24.8832031 L1.9999999e-08,39.1175781 C0.00029299,39.6049805 0.39560549,40.0000977 0.88320314,40 L8.546875,40 L8.546875,33.8125 L6.46875,33.8125 L6.46875,31.390625 L8.546875,31.390625 L8.546875,29.6083008 C8.546875,27.5414063 9.8086914,26.4164063 11.6524414,26.4164063 C12.5355469,26.4164063 13.2944336,26.4822266 13.515625,26.5116211 L13.515625,28.671875 L12.2442383,28.671875 C11.2411133,28.671875 11.046875,29.1485352 11.046875,29.8481445 L11.046875,31.390625 L13.4453125,31.390625 L13.1328125,33.8125 L11.046875,33.8125 L11.046875,40 L15.1167969,40 C15.6044922,40.0000977 15.9999024,39.6048828 16,39.1171875 C16,39.1170899 16,39.1169922 16,39.1167969 L16,24.8824219 C15.9998047,24.3950195 15.6043945,23.9999024 15.1167969,24 Z" id="Path-Copy" fill="#3B5998"></path>
            <path d="M29.0318675,14.4999022 C35.0698931,14.4999022 38.3718299,9.4988713 38.3718299,5.16234246 C38.3718299,5.02030551 38.3688945,4.87885548 38.3625345,4.73818805 C39.0034307,4.27490501 39.5604723,3.69677943 40,3.0387336 C39.4118431,3.3002107 38.7787746,3.47599609 38.1148843,3.55552503 C38.7925709,3.14907635 39.31292,2.5063885 39.5583197,1.74024982 C38.924077,2.11617819 38.2216351,2.38929607 37.4738902,2.53681102 C36.8748723,1.89891645 36.0219421,1.5 35.077623,1.5 C33.264914,1.5 31.7947664,2.96967154 31.7947664,4.78132736 C31.7947664,5.03898944 31.8236312,5.2894127 31.8798931,5.52966253 C29.1516319,5.39241883 26.7322729,4.08659845 25.1133983,2.10082021 C24.8315996,2.58572182 24.6689783,3.14917417 24.6689783,3.75038564 C24.6689783,4.88883329 25.2485246,5.89414575 26.1297326,6.4820535 C25.591184,6.4655217 25.0853162,6.3177132 24.6430489,6.0716919 C24.6425597,6.0854848 24.6425597,6.0988863 24.6425597,6.1135596 C24.6425597,7.7029647 25.7740596,9.0300124 27.2763009,9.330716 C27.000373,9.4057451 26.7100617,9.4461455 26.4106506,9.4461455 C26.1994973,9.4461455 25.9936277,9.4254073 25.7936289,9.3869634 C26.2115325,10.6909252 27.4234624,11.6397946 28.8602442,11.666402 C27.7366699,12.5467963 26.3213165,13.0712179 24.7830676,13.0712179 C24.51849,13.0712179 24.2569456,13.0560555 24,13.0257308 C25.4528287,13.9566989 27.1779649,14.5 29.0319653,14.5" id="Path" fill="#AAAAAA"></path>
            <path d="M15.1167969,48 L0.882421888,48 C0.395019538,48.000293 -9.76419001e-05,48.3956055 1.80998576e-08,48.8832031 L1.80998576e-08,63.1175781 C0.0002929881,63.6049805 0.395605488,64.0000977 0.883203138,64 L8.546875,64 L8.546875,57.8125 L6.46875,57.8125 L6.46875,55.390625 L8.546875,55.390625 L8.546875,53.6083008 C8.546875,51.5414063 9.8086914,50.4164063 11.6524414,50.4164063 C12.5355469,50.4164063 13.2944336,50.4822266 13.515625,50.5116211 L13.515625,52.671875 L12.2442383,52.671875 C11.2411133,52.671875 11.046875,53.1485352 11.046875,53.8481445 L11.046875,55.390625 L13.4453125,55.390625 L13.1328125,57.8125 L11.046875,57.8125 L11.046875,64 L15.1167969,64 C15.6044922,64.0000977 15.9999024,63.6048828 16,63.1171875 C16,63.1170899 16,63.1169922 16,63.1167969 L16,48.8824219 C15.9998047,48.3950195 15.6043945,47.9999023 15.1167969,48 Z" id="Path-Copy-2" fill="#000000"></path>
            <path d="M29.0318675,61.9999022 C35.0698931,61.9999022 38.3718299,56.9988713 38.3718299,52.6623424 C38.3718299,52.5203055 38.3688945,52.3788555 38.3625345,52.238188 C39.0034307,51.774905 39.5604723,51.1967794 40,50.5387336 C39.4118431,50.8002107 38.7787746,50.9759961 38.1148843,51.055525 C38.7925709,50.6490763 39.31292,50.0063885 39.5583197,49.2402498 C38.924077,49.6161782 38.2216351,49.8892961 37.4738902,50.036811 C36.8748723,49.3989164 36.0219421,49 35.077623,49 C33.264914,49 31.7947664,50.4696715 31.7947664,52.2813273 C31.7947664,52.5389894 31.8236312,52.7894127 31.8798931,53.0296625 C29.1516319,52.8924188 26.7322729,51.5865984 25.1133983,49.6008202 C24.8315996,50.0857218 24.6689783,50.6491742 24.6689783,51.2503856 C24.6689783,52.3888333 25.2485246,53.3941457 26.1297326,53.9820535 C25.591184,53.9655217 25.0853162,53.8177132 24.6430489,53.5716919 C24.6425597,53.5854848 24.6425597,53.5988863 24.6425597,53.6135596 C24.6425597,55.2029647 25.7740596,56.5300124 27.2763009,56.830716 C27.000373,56.9057451 26.7100617,56.9461455 26.4106506,56.9461455 C26.1994973,56.9461455 25.9936277,56.9254073 25.7936289,56.8869634 C26.2115325,58.1909252 27.4234624,59.1397946 28.8602442,59.166402 C27.7366699,60.0467963 26.3213165,60.5712179 24.7830676,60.5712179 C24.51849,60.5712179 24.2569456,60.5560555 24,60.5257308 C25.4528287,61.4566989 27.1779649,62 29.0319653,62" id="Path-Copy" fill="#000000"></path>
            <path d="M29.0318675,38.4999022 C35.0698932,38.4999022 38.3718299,33.4988713 38.3718299,29.1623425 C38.3718299,29.0203055 38.3688945,28.8788555 38.3625345,28.738188 C39.0034307,28.274905 39.5604723,27.6967794 40,27.0387336 C39.4118431,27.3002107 38.7787746,27.4759961 38.1148843,27.555525 C38.792571,27.1490764 39.31292,26.5063885 39.5583197,25.7402498 C38.924077,26.1161782 38.2216351,26.3892961 37.4738902,26.536811 C36.8748723,25.8989165 36.0219421,25.5 35.0776231,25.5 C33.264914,25.5 31.7947664,26.9696715 31.7947664,28.7813274 C31.7947664,29.0389894 31.8236312,29.2894127 31.8798931,29.5296625 C29.1516319,29.3924188 26.7322729,28.0865985 25.1133983,26.1008202 C24.8315996,26.5857218 24.6689783,27.1491742 24.6689783,27.7503856 C24.6689783,28.8888333 25.2485246,29.8941458 26.1297326,30.4820535 C25.591184,30.4655217 25.0853163,30.3177132 24.6430489,30.0716919 C24.6425597,30.0854848 24.6425597,30.0988863 24.6425597,30.1135596 C24.6425597,31.7029647 25.7740596,33.0300124 27.2763009,33.330716 C27.000373,33.4057451 26.7100617,33.4461455 26.4106506,33.4461455 C26.1994973,33.4461455 25.9936277,33.4254073 25.793629,33.3869634 C26.2115325,34.6909252 27.4234624,35.6397946 28.8602442,35.666402 C27.7366699,36.5467963 26.3213165,37.0712179 24.7830676,37.0712179 C24.51849,37.0712179 24.2569456,37.0560555 24,37.0257308 C25.4528287,37.9566989 27.1779649,38.5 29.0319653,38.5" id="Path-Copy-2" fill="#55ABEE"></path>
        </g>
    </g>
</svg>